<?xml version="1.0" encoding="utf-8"?>
<!-- Generator: Adobe Illustrator 23.0.1, SVG Export Plug-In . SVG Version: 6.00 Build 0)  -->
<svg version="1.1" id="Camada_1" xmlns="http://www.w3.org/2000/svg" xmlns:xlink="http://www.w3.org/1999/xlink" x="0px" y="0px"
	 viewBox="0 0 1920 1080" style="enable-background:new 0 0 1920 1080;" xml:space="preserve">
<g>
	<g>
		<path d="M1166.09,409.88c31.86,0,53.71,16.17,59.96,44.36l0.39,1.79h15.05l-0.54-2.72c-7.15-35.98-35.04-57.46-74.61-57.46
			c-49.63,0-81.7,36.65-81.7,93.36c0,56.86,31.5,93.6,80.25,93.6c28.95,0,49.81-9.62,62.15-28.62l0.19,25.47h13.77v-88.11h-64.79
			v13.79h50.52v5.74c0,53.55-47.15,57.72-61.6,57.72c-39.64,0-65.24-31.24-65.24-79.58
			C1099.87,441.02,1125.87,409.88,1166.09,409.88z"/>
		<polygon points="692.35,399.01 677.83,399.01 677.83,579.66 789.75,579.66 789.75,565.63 692.35,565.63 		"/>
		<path d="M930.28,399.01l-69.77,180.65h15.33l18.22-47.85h85.77l18.46,47.85h15.57l-70.02-180.65H930.28z M974.44,517.78h-75
			l37.5-98.21L974.44,517.78z"/>
		<path d="M1382.03,399.01l-69.77,180.65h15.33l18.22-47.85h85.77l18.46,47.85h15.57l-70.02-180.65H1382.03z M1426.19,517.78h-75
			l37.5-98.21L1426.19,517.78z"/>
		<path d="M1622.29,495.76c27.5-5.39,40.34-20.59,40.34-47.6c0-43.2-34.36-49.15-71.5-49.15h-54.74v180.65h14.51v-81.37h39.98
			c5.74,0,11.19,0,16.42-0.37l43.18,81.74h16.33L1622.29,495.76z M1550.9,412.55h39.74c36.8,0,56.74,5.75,56.74,36.1
			c0,30.19-20.81,36.1-56.74,36.1h-39.74V412.55z"/>
	</g>
	<g>
		<path d="M685.29,650.47c10.18,0,17.37,3.66,17.37,15.96c0,12.34-7.19,16-17.37,16h-7.45v-31.96H685.29z M685.11,652.1h-5.47v28.65
			h5.47c7.76,0,15.6-1.85,15.6-14.33C700.71,653.95,692.87,652.1,685.11,652.1z"/>
		<path d="M730.93,650.47h20.02v1.72h-18.21v12.83h17.1v1.68h-17.1v14.02h18.21v1.72h-20.02V650.47z"/>
		<path d="M791.38,649.89c6.17,0,10.71,2.95,11.86,8.64h-1.9c-1.15-4.67-4.94-6.92-10.1-6.92c-4.19,0-8.95,1.63-8.95,6
			c0,3.75,3.13,5.69,7.14,6.61l3.92,0.88c4.67,1.11,10.54,2.95,10.54,8.86c0,6.08-5.73,9.04-11.82,9.04
			c-6.87,0-11.59-3.44-12.7-10.1h1.9c1.28,5.99,5.42,8.38,10.71,8.38c4.06,0,10.01-1.5,10.01-7.05c0-4.36-4.1-6.26-8.95-7.36
			l-4.19-0.93c-4.1-0.97-8.46-3.13-8.46-8.2C780.4,652.19,786.26,649.89,791.38,649.89z"/>
		<path d="M843.24,682.43h-1.81v-31.96h1.81V682.43z"/>
		<path d="M906.81,659.99h-1.9c-1.28-5.78-5.9-8.38-11.29-8.38c-7.41,0-12.43,5.73-12.43,14.81c0,8.99,4.85,14.86,12.25,14.86
			c5.51,0,11.59-2.65,11.59-10.89v-1.45h-9.17v-1.68h10.93v15.17h-1.68l-0.04-5.78c-1.77,3.7-5.29,6.35-11.68,6.35
			c-9.17,0-14.15-7.1-14.15-16.58c0-9.48,5.2-16.53,14.42-16.53C900.37,649.89,905.49,653.33,906.81,659.99z"/>
		<path d="M953.43,682.43l-20.01-29.71v29.71h-1.81v-31.96h2.43l20.01,29.71v-29.71h1.81v31.96H953.43z"/>
		<path d="M1035.12,650.47h20.02v1.72h-18.21v12.83h17.1v1.68h-17.1v14.02h18.21v1.72h-20.02V650.47z"/>
		<path d="M1145.55,650.47h1.9l12.39,31.96h-1.94l-3.35-8.68h-16.14l-3.31,8.68h-1.9L1145.55,650.47z M1139.07,672.03h14.81
			l-7.41-19.4L1139.07,672.03z"/>
		<path d="M1198.63,667.57c-1.01,0.09-2.07,0.09-3.22,0.09h-7.67v14.77h-1.81v-31.96h9.52c7.32,0,12.56,1.32,12.56,8.51
			c0,5.38-2.95,7.58-7.54,8.34l8.02,15.12h-2.03L1198.63,667.57z M1187.74,652.1v13.93h7.62c6.04,0,10.72-0.79,10.72-6.96
			c0-6.22-4.67-6.96-10.72-6.96H1187.74z"/>
		<path d="M1257.99,678.99l4.01,3.97l-1.23,1.19l-4.01-4.01c-2.38,1.85-5.38,2.87-8.86,2.87c-9.04,0-14.55-6.88-14.55-16.58
			c0-9.7,5.51-16.53,14.55-16.53c8.9,0,14.59,6.62,14.59,16.53C1262.48,671.72,1260.85,676.08,1257.99,678.99z M1247.89,681.28
			c2.86,0,5.46-0.84,7.54-2.47l-3.53-3.53l1.23-1.19l3.53,3.57c2.42-2.56,3.88-6.35,3.88-11.24c0-9.48-5.42-14.81-12.65-14.81
			c-7.19,0-12.61,5.33-12.61,14.81C1235.28,675.9,1240.71,681.28,1247.89,681.28z"/>
		<path d="M1286.4,669.47v-19h1.81v19.31c0,7.72,2.82,11.51,10.4,11.51s10.4-3.79,10.4-11.51v-19.31h1.81v19
			c0,9.61-3.61,13.54-12.21,13.54S1286.4,679.08,1286.4,669.47z"/>
		<path d="M1350.21,682.43h-1.81v-31.96h1.81V682.43z"/>
		<path d="M1399.08,652.19h-11.15v-1.72h24.16v1.72h-11.2v30.24h-1.81V652.19z"/>
		<path d="M1440.7,650.47h20.02v1.72h-18.21v12.83h17.1v1.68h-17.1v14.02h18.21v1.72h-20.02V650.47z"/>
		<path d="M1500.47,652.19h-11.15v-1.72h24.16v1.72h-11.2v30.24h-1.81V652.19z"/>
		<path d="M1539.89,669.47v-19h1.81v19.31c0,7.72,2.82,11.51,10.4,11.51s10.4-3.79,10.4-11.51v-19.31h1.81v19
			c0,9.61-3.61,13.54-12.21,13.54S1539.89,679.08,1539.89,669.47z"/>
		<path d="M1604.21,667.57c-1.01,0.09-2.07,0.09-3.22,0.09h-7.67v14.77h-1.81v-31.96h9.52c7.32,0,12.56,1.32,12.56,8.51
			c0,5.38-2.95,7.58-7.54,8.34l8.02,15.12h-2.03L1604.21,667.57z M1593.32,652.1v13.93h7.62c6.04,0,10.72-0.79,10.72-6.96
			c0-6.22-4.67-6.96-10.72-6.96H1593.32z"/>
		<path d="M1652.52,650.47h1.9l12.39,31.96h-1.94l-3.35-8.68h-16.14l-3.31,8.68h-1.9L1652.52,650.47z M1646.04,672.03h14.81
			l-7.41-19.4L1646.04,672.03z"/>
	</g>
	<g>
		<polygon points="285.18,650.43 536.28,650.43 536.28,682.42 253.19,682.42 253.19,399.33 285.18,399.33 		"/>
		<polygon points="504.3,431.32 504.3,579.66 536.28,579.66 536.28,399.33 355.95,399.33 355.95,431.32 		"/>
	</g>
</g>
</svg>
