<?xml version="1.0" encoding="utf-8"?>
<!-- Generator: Adobe Illustrator 23.0.1, SVG Export Plug-In . SVG Version: 6.00 Build 0)  -->
<svg version="1.1" id="Camada_1" xmlns="http://www.w3.org/2000/svg" xmlns:xlink="http://www.w3.org/1999/xlink" x="0px" y="0px"
	 viewBox="0 0 1920 1080" style="enable-background:new 0 0 1920 1080;" xml:space="preserve">
<g>
	<g>
		<polygon points="850.44,436.21 1101.55,436.2 1101.55,468.19 818.45,468.19 818.45,185.1 850.44,185.1 		"/>
		<polygon points="1069.56,217.09 1069.56,365.43 1101.55,365.43 1101.55,185.1 921.22,185.1 921.22,217.09 		"/>
	</g>
</g>
<g>
	<g>
		<path d="M953.82,620.63c31.86,0,53.71,16.17,59.96,44.36l0.39,1.79h15.05l-0.54-2.72c-7.15-35.98-35.04-57.46-74.61-57.46
			c-49.63,0-81.7,36.65-81.7,93.36c0,56.86,31.5,93.6,80.25,93.6c28.95,0,49.81-9.62,62.15-28.62l0.19,25.47h13.77V702.3h-64.79
			v13.79h50.52v5.74c0,53.55-47.15,57.72-61.6,57.72c-39.64,0-65.24-31.24-65.24-79.58C887.6,651.77,913.59,620.63,953.82,620.63z"
			/>
		<polygon points="480.08,609.76 465.56,609.76 465.56,790.41 577.48,790.41 577.48,776.38 480.08,776.38 		"/>
		<path d="M718.01,609.76l-69.77,180.65h15.33l18.22-47.85h85.77l18.46,47.85h15.57l-70.02-180.65H718.01z M762.17,728.53h-75
			l37.5-98.21L762.17,728.53z"/>
		<path d="M1169.76,609.76l-69.77,180.65h15.33l18.22-47.85h85.77l18.46,47.85h15.57l-70.02-180.65H1169.76z M1213.92,728.53h-75
			l37.5-98.21L1213.92,728.53z"/>
		<path d="M1410.02,706.51c27.5-5.39,40.34-20.59,40.34-47.6c0-43.2-34.36-49.15-71.5-49.15h-54.74v180.65h14.51v-81.37h39.99
			c5.74,0,11.19,0,16.42-0.38l43.18,81.74h16.33L1410.02,706.51z M1338.63,623.3h39.74c36.8,0,56.74,5.75,56.74,36.1
			c0,30.19-20.81,36.1-56.74,36.1h-39.74V623.3z"/>
	</g>
	<g>
		<path d="M472.92,861.22c10.18,0,17.37,3.66,17.37,15.96c0,12.34-7.19,16-17.37,16h-7.45v-31.96H472.92z M472.74,862.85h-5.47
			v28.65h5.47c7.76,0,15.6-1.85,15.6-14.33C488.34,864.7,480.5,862.85,472.74,862.85z"/>
		<path d="M518.56,861.22h20.02v1.72h-18.21v12.83h17.1v1.68h-17.1v14.02h18.21v1.72h-20.02V861.22z"/>
		<path d="M579.01,860.64c6.17,0,10.71,2.95,11.86,8.64h-1.9c-1.15-4.67-4.94-6.92-10.1-6.92c-4.19,0-8.95,1.63-8.95,6
			c0,3.75,3.13,5.69,7.14,6.61l3.92,0.88c4.67,1.11,10.54,2.95,10.54,8.86c0,6.08-5.73,9.04-11.82,9.04
			c-6.87,0-11.59-3.44-12.7-10.1h1.9c1.28,5.99,5.42,8.38,10.71,8.38c4.06,0,10.01-1.5,10.01-7.05c0-4.36-4.1-6.26-8.95-7.36
			l-4.19-0.93c-4.1-0.97-8.46-3.13-8.46-8.2C568.03,862.93,573.89,860.64,579.01,860.64z"/>
		<path d="M630.87,893.18h-1.81v-31.96h1.81V893.18z"/>
		<path d="M694.44,870.74h-1.9c-1.28-5.78-5.9-8.38-11.29-8.38c-7.41,0-12.43,5.73-12.43,14.81c0,8.99,4.85,14.86,12.26,14.86
			c5.51,0,11.59-2.65,11.59-10.89v-1.45h-9.17v-1.68h10.93v15.17h-1.68l-0.04-5.78c-1.77,3.7-5.29,6.35-11.68,6.35
			c-9.17,0-14.15-7.1-14.15-16.58c0-9.48,5.2-16.53,14.42-16.53C688.01,860.64,693.12,864.08,694.44,870.74z"/>
		<path d="M741.06,893.18l-20.01-29.71v29.71h-1.81v-31.96h2.43l20.01,29.71v-29.71h1.81v31.96H741.06z"/>
		<path d="M822.75,861.22h20.02v1.72h-18.21v12.83h17.1v1.68h-17.1v14.02h18.21v1.72h-20.02V861.22z"/>
		<path d="M933.18,861.22h1.9l12.39,31.96h-1.94l-3.35-8.68h-16.14l-3.31,8.68h-1.9L933.18,861.22z M926.7,882.77h14.81l-7.41-19.4
			L926.7,882.77z"/>
		<path d="M986.26,878.32c-1.01,0.09-2.07,0.09-3.22,0.09h-7.67v14.77h-1.81v-31.96h9.52c7.32,0,12.56,1.32,12.56,8.51
			c0,5.38-2.95,7.58-7.54,8.34l8.02,15.12h-2.03L986.26,878.32z M975.37,862.85v13.93H983c6.04,0,10.72-0.79,10.72-6.96
			c0-6.22-4.67-6.96-10.72-6.96H975.37z"/>
		<path d="M1045.62,889.74l4.01,3.97l-1.23,1.19l-4.01-4.01c-2.38,1.85-5.38,2.87-8.86,2.87c-9.04,0-14.55-6.88-14.55-16.58
			s5.51-16.53,14.55-16.53c8.9,0,14.59,6.62,14.59,16.53C1050.12,882.47,1048.48,886.83,1045.62,889.74z M1035.52,892.03
			c2.86,0,5.46-0.84,7.54-2.47l-3.53-3.53l1.23-1.19l3.53,3.57c2.42-2.56,3.88-6.35,3.88-11.24c0-9.48-5.42-14.81-12.65-14.81
			c-7.19,0-12.61,5.33-12.61,14.81C1022.91,886.65,1028.34,892.03,1035.52,892.03z"/>
		<path d="M1074.03,880.21v-19h1.81v19.31c0,7.72,2.82,11.51,10.4,11.51s10.4-3.79,10.4-11.51v-19.31h1.81v19
			c0,9.61-3.61,13.54-12.21,13.54C1077.65,893.75,1074.03,889.83,1074.03,880.21z"/>
		<path d="M1137.84,893.18h-1.81v-31.96h1.81V893.18z"/>
		<path d="M1186.71,862.93h-11.15v-1.72h24.16v1.72h-11.2v30.24h-1.81V862.93z"/>
		<path d="M1228.33,861.22h20.02v1.72h-18.21v12.83h17.1v1.68h-17.1v14.02h18.21v1.72h-20.02V861.22z"/>
		<path d="M1288.11,862.93h-11.15v-1.72h24.16v1.72h-11.2v30.24h-1.81V862.93z"/>
		<path d="M1327.52,880.21v-19h1.81v19.31c0,7.72,2.82,11.51,10.4,11.51s10.4-3.79,10.4-11.51v-19.31h1.81v19
			c0,9.61-3.61,13.54-12.21,13.54S1327.52,889.83,1327.52,880.21z"/>
		<path d="M1391.84,878.32c-1.01,0.09-2.07,0.09-3.22,0.09h-7.67v14.77h-1.81v-31.96h9.52c7.32,0,12.56,1.32,12.56,8.51
			c0,5.38-2.95,7.58-7.54,8.34l8.02,15.12h-2.03L1391.84,878.32z M1380.95,862.85v13.93h7.62c6.04,0,10.71-0.79,10.71-6.96
			c0-6.22-4.67-6.96-10.71-6.96H1380.95z"/>
		<path d="M1440.15,861.22h1.9l12.39,31.96h-1.94l-3.35-8.68h-16.14l-3.31,8.68h-1.9L1440.15,861.22z M1433.67,882.77h14.81
			l-7.41-19.4L1433.67,882.77z"/>
	</g>
</g>
</svg>
