<?xml version="1.0" encoding="UTF-8" standalone="no"?>
<!-- Generator: Adobe Illustrator 23.0.1, SVG Export Plug-In . SVG Version: 6.00 Build 0)  -->

<svg
   xmlns:dc="http://purl.org/dc/elements/1.1/"
   xmlns:cc="http://creativecommons.org/ns#"
   xmlns:rdf="http://www.w3.org/1999/02/22-rdf-syntax-ns#"
   xmlns:svg="http://www.w3.org/2000/svg"
   xmlns="http://www.w3.org/2000/svg"
   xmlns:sodipodi="http://sodipodi.sourceforge.net/DTD/sodipodi-0.dtd"
   xmlns:inkscape="http://www.inkscape.org/namespaces/inkscape"
   version="1.1"
   id="Camada_1"
   x="0px"
   y="0px"
   viewBox="0 0 1880 385"
   xml:space="preserve"
   sodipodi:docname="lagar_logo_horizontal.svg"
   width="1880"
   height="385"
   inkscape:version="0.92.4 (33fec40, 2019-01-16)"><metadata
   id="metadata4684"><rdf:RDF><cc:Work
       rdf:about=""><dc:format>image/svg+xml</dc:format><dc:type
         rdf:resource="http://purl.org/dc/dcmitype/StillImage" /><dc:title></dc:title></cc:Work></rdf:RDF></metadata><defs
   id="defs4682" /><sodipodi:namedview
   pagecolor="#ffffff"
   bordercolor="#666666"
   borderopacity="1"
   objecttolerance="10"
   gridtolerance="10"
   guidetolerance="10"
   inkscape:pageopacity="0"
   inkscape:pageshadow="2"
   inkscape:window-width="1920"
   inkscape:window-height="1025"
   id="namedview4680"
   showgrid="false"
   inkscape:zoom="0.26418295"
   inkscape:cx="528.1274"
   inkscape:cy="111.24077"
   inkscape:window-x="1600"
   inkscape:window-y="27"
   inkscape:window-maximized="1"
   inkscape:current-layer="Camada_1" />
<g
   id="g4677"
   transform="matrix(1.3213245,0,0,1.3213245,-328.47152,-521.01523)">
	<g
   id="g4631">
		<path
   d="m 1166.09,409.88 c 31.86,0 53.71,16.17 59.96,44.36 l 0.39,1.79 h 15.05 l -0.54,-2.72 c -7.15,-35.98 -35.04,-57.46 -74.61,-57.46 -49.63,0 -81.7,36.65 -81.7,93.36 0,56.86 31.5,93.6 80.25,93.6 28.95,0 49.81,-9.62 62.15,-28.62 l 0.19,25.47 H 1241 v -88.11 h -64.79 v 13.79 h 50.52 v 5.74 c 0,53.55 -47.15,57.72 -61.6,57.72 -39.64,0 -65.24,-31.24 -65.24,-79.58 -0.02,-48.2 25.98,-79.34 66.2,-79.34 z"
   id="path4621"
   inkscape:connector-curvature="0" />
		<polygon
   points="789.75,565.63 692.35,565.63 692.35,399.01 677.83,399.01 677.83,579.66 789.75,579.66 "
   id="polygon4623" />
		<path
   d="m 930.28,399.01 -69.77,180.65 h 15.33 l 18.22,-47.85 h 85.77 l 18.46,47.85 h 15.57 L 943.84,399.01 Z m 44.16,118.77 h -75 l 37.5,-98.21 z"
   id="path4625"
   inkscape:connector-curvature="0" />
		<path
   d="m 1382.03,399.01 -69.77,180.65 h 15.33 l 18.22,-47.85 h 85.77 l 18.46,47.85 h 15.57 l -70.02,-180.65 z m 44.16,118.77 h -75 l 37.5,-98.21 z"
   id="path4627"
   inkscape:connector-curvature="0" />
		<path
   d="m 1622.29,495.76 c 27.5,-5.39 40.34,-20.59 40.34,-47.6 0,-43.2 -34.36,-49.15 -71.5,-49.15 h -54.74 v 180.65 h 14.51 v -81.37 h 39.98 c 5.74,0 11.19,0 16.42,-0.37 l 43.18,81.74 h 16.33 z m -71.39,-83.21 h 39.74 c 36.8,0 56.74,5.75 56.74,36.1 0,30.19 -20.81,36.1 -56.74,36.1 h -39.74 z"
   id="path4629"
   inkscape:connector-curvature="0" />
	</g>
	<g
   id="g4669">
		<path
   d="m 685.29,650.47 c 10.18,0 17.37,3.66 17.37,15.96 0,12.34 -7.19,16 -17.37,16 h -7.45 v -31.96 z m -0.18,1.63 h -5.47 v 28.65 h 5.47 c 7.76,0 15.6,-1.85 15.6,-14.33 0,-12.47 -7.84,-14.32 -15.6,-14.32 z"
   id="path4633"
   inkscape:connector-curvature="0" />
		<path
   d="m 730.93,650.47 h 20.02 v 1.72 h -18.21 v 12.83 h 17.1 v 1.68 h -17.1 v 14.02 h 18.21 v 1.72 h -20.02 z"
   id="path4635"
   inkscape:connector-curvature="0" />
		<path
   d="m 791.38,649.89 c 6.17,0 10.71,2.95 11.86,8.64 h -1.9 c -1.15,-4.67 -4.94,-6.92 -10.1,-6.92 -4.19,0 -8.95,1.63 -8.95,6 0,3.75 3.13,5.69 7.14,6.61 l 3.92,0.88 c 4.67,1.11 10.54,2.95 10.54,8.86 0,6.08 -5.73,9.04 -11.82,9.04 -6.87,0 -11.59,-3.44 -12.7,-10.1 h 1.9 c 1.28,5.99 5.42,8.38 10.71,8.38 4.06,0 10.01,-1.5 10.01,-7.05 0,-4.36 -4.1,-6.26 -8.95,-7.36 l -4.19,-0.93 c -4.1,-0.97 -8.46,-3.13 -8.46,-8.2 0.01,-5.55 5.87,-7.85 10.99,-7.85 z"
   id="path4637"
   inkscape:connector-curvature="0" />
		<path
   d="m 843.24,682.43 h -1.81 v -31.96 h 1.81 z"
   id="path4639"
   inkscape:connector-curvature="0" />
		<path
   d="m 906.81,659.99 h -1.9 c -1.28,-5.78 -5.9,-8.38 -11.29,-8.38 -7.41,0 -12.43,5.73 -12.43,14.81 0,8.99 4.85,14.86 12.25,14.86 5.51,0 11.59,-2.65 11.59,-10.89 v -1.45 h -9.17 v -1.68 h 10.93 v 15.17 h -1.68 l -0.04,-5.78 c -1.77,3.7 -5.29,6.35 -11.68,6.35 -9.17,0 -14.15,-7.1 -14.15,-16.58 0,-9.48 5.2,-16.53 14.42,-16.53 6.71,0 11.83,3.44 13.15,10.1 z"
   id="path4641"
   inkscape:connector-curvature="0" />
		<path
   d="m 953.43,682.43 -20.01,-29.71 v 29.71 h -1.81 v -31.96 h 2.43 l 20.01,29.71 v -29.71 h 1.81 v 31.96 z"
   id="path4643"
   inkscape:connector-curvature="0" />
		<path
   d="m 1035.12,650.47 h 20.02 v 1.72 h -18.21 v 12.83 h 17.1 v 1.68 h -17.1 v 14.02 h 18.21 v 1.72 h -20.02 z"
   id="path4645"
   inkscape:connector-curvature="0" />
		<path
   d="m 1145.55,650.47 h 1.9 l 12.39,31.96 h -1.94 l -3.35,-8.68 h -16.14 l -3.31,8.68 h -1.9 z m -6.48,21.56 h 14.81 l -7.41,-19.4 z"
   id="path4647"
   inkscape:connector-curvature="0" />
		<path
   d="m 1198.63,667.57 c -1.01,0.09 -2.07,0.09 -3.22,0.09 h -7.67 v 14.77 h -1.81 v -31.96 h 9.52 c 7.32,0 12.56,1.32 12.56,8.51 0,5.38 -2.95,7.58 -7.54,8.34 l 8.02,15.12 h -2.03 z m -10.89,-15.47 v 13.93 h 7.62 c 6.04,0 10.72,-0.79 10.72,-6.96 0,-6.22 -4.67,-6.96 -10.72,-6.96 h -7.62 z"
   id="path4649"
   inkscape:connector-curvature="0" />
		<path
   d="m 1257.99,678.99 4.01,3.97 -1.23,1.19 -4.01,-4.01 c -2.38,1.85 -5.38,2.87 -8.86,2.87 -9.04,0 -14.55,-6.88 -14.55,-16.58 0,-9.7 5.51,-16.53 14.55,-16.53 8.9,0 14.59,6.62 14.59,16.53 -0.01,5.29 -1.64,9.65 -4.5,12.56 z m -10.1,2.29 c 2.86,0 5.46,-0.84 7.54,-2.47 l -3.53,-3.53 1.23,-1.19 3.53,3.57 c 2.42,-2.56 3.88,-6.35 3.88,-11.24 0,-9.48 -5.42,-14.81 -12.65,-14.81 -7.19,0 -12.61,5.33 -12.61,14.81 0,9.48 5.43,14.86 12.61,14.86 z"
   id="path4651"
   inkscape:connector-curvature="0" />
		<path
   d="m 1286.4,669.47 v -19 h 1.81 v 19.31 c 0,7.72 2.82,11.51 10.4,11.51 7.58,0 10.4,-3.79 10.4,-11.51 v -19.31 h 1.81 v 19 c 0,9.61 -3.61,13.54 -12.21,13.54 -8.6,0 -12.21,-3.93 -12.21,-13.54 z"
   id="path4653"
   inkscape:connector-curvature="0" />
		<path
   d="m 1350.21,682.43 h -1.81 v -31.96 h 1.81 z"
   id="path4655"
   inkscape:connector-curvature="0" />
		<path
   d="m 1399.08,652.19 h -11.15 v -1.72 h 24.16 v 1.72 h -11.2 v 30.24 h -1.81 z"
   id="path4657"
   inkscape:connector-curvature="0" />
		<path
   d="m 1440.7,650.47 h 20.02 v 1.72 h -18.21 v 12.83 h 17.1 v 1.68 h -17.1 v 14.02 h 18.21 v 1.72 h -20.02 z"
   id="path4659"
   inkscape:connector-curvature="0" />
		<path
   d="m 1500.47,652.19 h -11.15 v -1.72 h 24.16 v 1.72 h -11.2 v 30.24 h -1.81 z"
   id="path4661"
   inkscape:connector-curvature="0" />
		<path
   d="m 1539.89,669.47 v -19 h 1.81 v 19.31 c 0,7.72 2.82,11.51 10.4,11.51 7.58,0 10.4,-3.79 10.4,-11.51 v -19.31 h 1.81 v 19 c 0,9.61 -3.61,13.54 -12.21,13.54 -8.6,0 -12.21,-3.93 -12.21,-13.54 z"
   id="path4663"
   inkscape:connector-curvature="0" />
		<path
   d="m 1604.21,667.57 c -1.01,0.09 -2.07,0.09 -3.22,0.09 h -7.67 v 14.77 h -1.81 v -31.96 h 9.52 c 7.32,0 12.56,1.32 12.56,8.51 0,5.38 -2.95,7.58 -7.54,8.34 l 8.02,15.12 h -2.03 z m -10.89,-15.47 v 13.93 h 7.62 c 6.04,0 10.72,-0.79 10.72,-6.96 0,-6.22 -4.67,-6.96 -10.72,-6.96 h -7.62 z"
   id="path4665"
   inkscape:connector-curvature="0" />
		<path
   d="m 1652.52,650.47 h 1.9 l 12.39,31.96 h -1.94 l -3.35,-8.68 h -16.14 l -3.31,8.68 h -1.9 z m -6.48,21.56 h 14.81 l -7.41,-19.4 z"
   id="path4667"
   inkscape:connector-curvature="0" />
	</g>
	<g
   id="g4675">
		<polygon
   points="253.19,399.33 285.18,399.33 285.18,650.43 536.28,650.43 536.28,682.42 253.19,682.42 "
   id="polygon4671" />
		<polygon
   points="355.95,399.33 355.95,431.32 504.3,431.32 504.3,579.66 536.28,579.66 536.28,399.33 "
   id="polygon4673" />
	</g>
</g>
</svg>